<svg id="Capa_1" data-name="Capa 1" xmlns="http://www.w3.org/2000/svg" viewBox="0 0 100 100"><defs><style>.cls-1{fill:none;stroke:#3b3f42;stroke-linecap:round;stroke-linejoin:round;stroke-width:6.13px;}.cls-2{fill:#3b3f42;}</style></defs><title>edit</title><g id="create-outline"><path id="Trazado_80" data-name="Trazado 80" class="cls-1" d="M79,44.21v44.4a9.65,9.65,0,0,1-9.65,9.65H11.4a9.65,9.65,0,0,1-9.65-9.65h0V30.7a9.65,9.65,0,0,1,9.65-9.65H51.81"/><path id="Trazado_81" data-name="Trazado 81" class="cls-2" d="M97.26,3a3.87,3.87,0,0,0-5.47-.26l-.13.13-3,3a1.93,1.93,0,0,0,0,2.72l2.74,2.74a1.94,1.94,0,0,0,2.73,0h0l2.91-2.89A3.93,3.93,0,0,0,97.26,3Z"/><path id="Trazado_82" data-name="Trazado 82" class="cls-2" d="M82.66,11.88,39.1,55.38a2.22,2.22,0,0,0-.55.95l-2,6a.94.94,0,0,0,.64,1.17,1,1,0,0,0,.53,0l6-2a2.29,2.29,0,0,0,1-.56L88.15,17.37a2.19,2.19,0,0,0,0-3.07l-2.4-2.41a2.17,2.17,0,0,0-3.07,0Z"/></g></svg>