<svg id="Capa_1" data-name="Capa 1" xmlns="http://www.w3.org/2000/svg" viewBox="0 0 100 100"><defs><style>.cls-1{fill:#fff;}</style></defs><title>excel</title><g id="excel"><g id="Grupo_233" data-name="Grupo 233"><g id="Grupo_232" data-name="Grupo 232"><path id="Trazado_102" data-name="Trazado 102" class="cls-1" d="M96.87,15.62H56.25V6.25a3.12,3.12,0,0,0-3.7-3.07l-50,9.38A3.11,3.11,0,0,0,0,15.62V84.37a3.11,3.11,0,0,0,2.55,3.07l50,9.38a3.66,3.66,0,0,0,.57.05,3.12,3.12,0,0,0,3.13-3.12h0V84.37H96.87A3.12,3.12,0,0,0,100,81.25h0V18.75a3.13,3.13,0,0,0-3.12-3.13ZM43,60.43a3.12,3.12,0,1,1-4.5,4.33,2,2,0,0,1-.19-.22L29.19,54.18l-8,10.25a3.13,3.13,0,0,1-4.94-3.85L25,49.4,16.4,39.56a3.13,3.13,0,0,1,4.71-4.11l7.8,8.91,9.25-11.91a3.13,3.13,0,1,1,4.93,3.85l-10,12.85ZM93.75,78.12H56.25V71.87h9.37a3.13,3.13,0,1,0,0-6.25H56.25V59.37h9.37a3.13,3.13,0,1,0,0-6.25H56.25V46.87h9.37a3.13,3.13,0,1,0,0-6.25H56.25V34.37h9.37a3.13,3.13,0,1,0,0-6.25H56.25V21.87h37.5Z"/></g></g><g id="Grupo_235" data-name="Grupo 235"><g id="Grupo_234" data-name="Grupo 234"><path id="Trazado_103" data-name="Trazado 103" class="cls-1" d="M84.37,28.12H78.12a3.13,3.13,0,0,0,0,6.25h6.25a3.13,3.13,0,0,0,0-6.25Z"/></g></g><g id="Grupo_237" data-name="Grupo 237"><g id="Grupo_236" data-name="Grupo 236"><path id="Trazado_104" data-name="Trazado 104" class="cls-1" d="M84.37,40.62H78.12a3.13,3.13,0,0,0,0,6.25h6.25a3.13,3.13,0,0,0,0-6.25Z"/></g></g><g id="Grupo_239" data-name="Grupo 239"><g id="Grupo_238" data-name="Grupo 238"><path id="Trazado_105" data-name="Trazado 105" class="cls-1" d="M84.37,53.12H78.12a3.13,3.13,0,0,0,0,6.25h6.25a3.13,3.13,0,1,0,0-6.25Z"/></g></g><g id="Grupo_241" data-name="Grupo 241"><g id="Grupo_240" data-name="Grupo 240"><path id="Trazado_106" data-name="Trazado 106" class="cls-1" d="M84.37,65.62H78.12a3.13,3.13,0,0,0,0,6.25h6.25a3.13,3.13,0,1,0,0-6.25Z"/></g></g></g></svg>