<svg id="Capa_1" data-name="Capa 1" xmlns="http://www.w3.org/2000/svg" viewBox="0 0 100 100"><defs><style>.cls-1{fill:#646464;}</style></defs><title>padlock</title><path id="path" class="cls-1" d="M78.56,33.35a9.79,9.79,0,0,1,9.52,9.52V90.48A9.79,9.79,0,0,1,78.56,100H21.44a9.79,9.79,0,0,1-9.52-9.52V42.87a9.79,9.79,0,0,1,9.52-9.52H26.2V23.8A21.59,21.59,0,0,1,33.34,7.14,25.15,25.15,0,0,1,50,0,22.31,22.31,0,0,1,66.65,7.14,25.15,25.15,0,0,1,73.79,23.8v9.52Zm-13.81,0V23.8a14.76,14.76,0,1,0-29.51,0v9.52Zm-21.42,40a9.22,9.22,0,1,0-2.85-6.66A9.4,9.4,0,0,0,43.33,73.34Z"/></svg>