<svg id="Capa_1" data-name="Capa 1" xmlns="http://www.w3.org/2000/svg" viewBox="0 0 100 100"><defs><style>.cls-1{fill:#fff;}</style></defs><title>pdf</title><g id="pdf-file"><path id="Trazado_97" data-name="Trazado 97" class="cls-1" d="M88.33,29H11.67a8.52,8.52,0,0,0-8.52,8.52V71.62a8.52,8.52,0,0,0,8.52,8.52H88.33a8.52,8.52,0,0,0,8.52-8.52V37.47A8.52,8.52,0,0,0,88.33,29ZM25.69,59H22.56v6.56a2.84,2.84,0,1,1-5.68,0l-.05-21.62a2.84,2.84,0,0,1,2.84-2.84h6A9,9,0,0,1,26.2,59Zm24.42,8.73c-1.69,0-5.93,0-6.11,0h0a2.84,2.84,0,0,1-2.84-2.84c0-.08,0-21,0-21A2.84,2.84,0,0,1,44,41.1H49.9A11.77,11.77,0,0,1,61.31,53.24q0,.6-.09,1.2A12.08,12.08,0,0,1,50.46,67.69l-.36,0ZM79.27,51.39a2.84,2.84,0,1,1,0,5.68H74.11v8.1a2.84,2.84,0,0,1-5.68,0h0V43.72a2.84,2.84,0,0,1,2.84-2.84H80a2.84,2.84,0,1,1,0,5.68H74.12V51.4Z"/><path id="Trazado_98" data-name="Trazado 98" class="cls-1" d="M49.88,46.78h-3.1V62.06H50c3.81-.07,5.5-3.86,5.5-7.61C55.51,52.63,55.11,46.78,49.88,46.78Z"/><path id="Trazado_99" data-name="Trazado 99" class="cls-1" d="M25.67,46.78H22.51V53.3h3.15a3.26,3.26,0,1,0,0-6.51h0Z"/><path id="Trazado_100" data-name="Trazado 100" class="cls-1" d="M85.37,23.26a14.21,14.21,0,0,0-3-4.91L70.51,5.88A14.3,14.3,0,0,0,60.18,1.45H22.29A8.51,8.51,0,0,0,13.77,10V23.24Z"/><path id="Trazado_101" data-name="Trazado 101" class="cls-1" d="M13.77,85.86V90a8.51,8.51,0,0,0,8.52,8.52H77.66A8.52,8.52,0,0,0,86.18,90h0V85.86Z"/></g></svg>