<svg id="Capa_1" data-name="Capa 1" xmlns="http://www.w3.org/2000/svg" viewBox="0 0 100 100"><defs><style>.cls-1{fill:#fff;}</style></defs><title>print</title><g id="print"><path id="Trazado_107" data-name="Trazado 107" class="cls-1" d="M82.6,19.36v-4.7A14.68,14.68,0,0,0,67.91,0H32A14.68,14.68,0,0,0,17.28,14.66v4.7Z"/><path id="Trazado_108" data-name="Trazado 108" class="cls-1" d="M23.15,62.36V94.22A5.86,5.86,0,0,0,29,100.08H70.84a5.86,5.86,0,0,0,5.86-5.86V62.36Zm34.6,25H42.11a2.93,2.93,0,1,1-.29-5.86H57.75a2.93,2.93,0,0,1,0,5.86Zm0-12.51H42.11A2.93,2.93,0,1,1,41.82,69a1.41,1.41,0,0,1,.29,0H57.75a2.93,2.93,0,0,1,0,5.86Z"/><path id="Trazado_109" data-name="Trazado 109" class="cls-1" d="M85.31,25.22H14.75A14.68,14.68,0,0,0,.08,39.88V63.34A14.67,14.67,0,0,0,14.75,78h2.54V62.36H15.53a2.93,2.93,0,0,1-.28-5.86H84.36a2.93,2.93,0,1,1,.29,5.86H82.6V78h2.74A14.67,14.67,0,0,0,100,63.34V39.88A14.68,14.68,0,0,0,85.31,25.22ZM24.92,43.59H15.53a2.93,2.93,0,0,1,0-5.86h9.38a2.93,2.93,0,0,1,0,5.86Z"/></g></svg>