<svg id="Capa_1" data-name="Capa 1" xmlns="http://www.w3.org/2000/svg" viewBox="0 0 100 100"><defs><style>.cls-1{fill:#27272b;}</style></defs><title>search</title><path id="path" class="cls-1" d="M71.32,63.07l28.41,28.4L91.2,100,62.79,71.59V67.05l-1.7-1.71a36.15,36.15,0,0,1-23.86,8.53,34.33,34.33,0,0,1-26.14-10.8A37.47,37.47,0,0,1,.29,36.93a34.34,34.34,0,0,1,10.8-26.14A37.49,37.49,0,0,1,37.23,0,36.86,36.86,0,0,1,74.16,36.79v.14A36.16,36.16,0,0,1,65.63,60.8l1.71,1.7h4ZM19,55.68A26.08,26.08,0,1,0,11.66,37.5,24,24,0,0,0,19,55.68Z"/></svg>