<svg id="Capa_1" data-name="Capa 1" xmlns="http://www.w3.org/2000/svg" viewBox="0 0 100 100"><defs><style>.cls-1{fill:#6b75a6;}</style></defs><title>send</title><g id="send"><path id="Trazado_95" data-name="Trazado 95" class="cls-1" d="M36.46,75.45V94.79a3.13,3.13,0,0,0,5.65,1.86l11.3-15.38Z"/><path id="Trazado_96" data-name="Trazado 96" class="cls-1" d="M98.69,2.66a3.14,3.14,0,0,0-3.26-.23l-93.75,49a3.12,3.12,0,0,0,.44,5.73L28.18,66l55.5-47.47L40.74,70.31,84.41,85.24a3.49,3.49,0,0,0,1,.16,3.11,3.11,0,0,0,3.09-2.66L100,5.66A3.15,3.15,0,0,0,98.69,2.66Z"/></g></svg>