<svg id="Capa_1" data-name="Capa 1" xmlns="http://www.w3.org/2000/svg" viewBox="0 0 100 100"><defs><style>.cls-1{fill:#1876a8;}</style></defs><title>viewno</title><path id="ic_visibility_off_24px" data-name="ic visibility off 24px" class="cls-1" d="M50,25A22.76,22.76,0,0,1,72.76,47.73a22,22,0,0,1-1.64,8.32L84.4,69.33A53.77,53.77,0,0,0,100,47.73,53.79,53.79,0,0,0,50,13.62a53.19,53.19,0,0,0-18.1,3.18l9.83,9.83A22.21,22.21,0,0,1,50,25ZM4.55,12.57,14.92,22.94,17,25A53.63,53.63,0,0,0,0,47.73,53.76,53.76,0,0,0,69.7,78.11l.24-.09,1.92,1.91L85.19,93.2,91,87.43,10.32,6.8ZM29.7,37.72l7.05,7.05a12.83,12.83,0,0,0-.37,3A13.63,13.63,0,0,0,50,61.37h0A12.83,12.83,0,0,0,53,61l7,7A22.59,22.59,0,0,1,29.7,37.72Zm19.6-3.55L63.63,48.5l.09-.75A13.63,13.63,0,0,0,50.08,34.13h0Z"/></svg>